<svg width="24" height="24" viewBox="0 0 24 24" fill="none" xmlns="http://www.w3.org/2000/svg">
<path d="M6.25272 3.50607C7.00951 3.26666 7.80817 3.18652 8.59745 3.27072C9.3865 3.35495 10.1496 3.6018 10.8387 3.99533C11.2636 4.23802 11.6543 4.53418 12.0027 4.87424C12.3513 4.53769 12.7419 4.24581 13.1658 4.00607C13.8546 3.61655 14.617 3.3728 15.4041 3.29123C16.191 3.20974 16.9862 3.29158 17.74 3.53146C18.494 3.77143 19.1908 4.16434 19.7859 4.68576C20.3811 5.20727 20.8621 5.84671 21.199 6.56271C21.5358 7.27854 21.7214 8.05609 21.7439 8.84689C21.7664 9.63789 21.6256 10.4254 21.3299 11.1594C21.0342 11.8934 20.5897 12.558 20.0252 13.1125C20.006 13.1313 19.9862 13.1489 19.9656 13.1653L12.5281 20.5324C12.2358 20.8219 11.7647 20.8219 11.4725 20.5324L3.97245 13.1047V13.1037C3.4061 12.5512 2.95912 11.8884 2.66093 11.1555C2.36182 10.4202 2.21816 9.63063 2.23905 8.83713C2.25996 8.04361 2.44462 7.26268 2.78202 6.54416C3.11942 5.82568 3.60277 5.18517 4.19999 4.66232C4.79721 4.13952 5.49598 3.74549 6.25272 3.50607ZM8.43827 4.76291C7.85486 4.70067 7.26426 4.75976 6.70487 4.93674C6.14561 5.11372 5.62866 5.40483 5.1873 5.79123C4.7461 6.17758 4.38972 6.65104 4.14042 7.18185C3.89109 7.71281 3.75455 8.28981 3.73905 8.87619C3.7236 9.4627 3.8295 10.0466 4.05058 10.5901C4.24404 11.0656 4.52179 11.5015 4.86991 11.8772L5.02323 12.0344L5.02812 12.0393L11.9998 18.9436L18.9725 12.0393C18.9878 12.0241 19.0031 12.0089 19.0193 11.9953C19.4146 11.5949 19.7278 11.1212 19.9383 10.5988C20.1568 10.0563 20.2615 9.47451 20.2449 8.88986C20.2283 8.30526 20.0906 7.73056 19.8416 7.20138C19.5926 6.67229 19.2374 6.20008 18.7976 5.81467C18.3578 5.4292 17.8423 5.13854 17.285 4.96115C16.7277 4.78385 16.14 4.72315 15.5584 4.78342C14.9766 4.84371 14.4132 5.02383 13.9041 5.31174C13.3952 5.59959 12.9508 5.98898 12.5994 6.45627C12.4573 6.64528 12.2343 6.75673 11.9978 6.75607C11.7615 6.75536 11.5393 6.64305 11.3982 6.45334C11.0482 5.98244 10.604 5.58906 10.0945 5.29806C9.58526 5.00725 9.0214 4.82517 8.43827 4.76291Z" fill="url(#paint0_linear_6763_6872)"/>
<defs>
<linearGradient id="paint0_linear_6763_6872" x1="11.9917" y1="3.23828" x2="11.9917" y2="20.7496" gradientUnits="userSpaceOnUse">
<stop stop-color="#FD8875"/>
<stop offset="0.515625" stop-color="#FD758D"/>
<stop offset="1" stop-color="#F864EF"/>
</linearGradient>
</defs>
</svg>
