<svg width="24" height="24" viewBox="0 0 24 24" fill="none" xmlns="http://www.w3.org/2000/svg">
<path d="M21.2549 17.0957C21.2549 16.9184 21.2202 16.7419 21.1523 16.5781C21.0845 16.4145 20.9846 16.2659 20.8594 16.1406C20.7341 16.0153 20.5856 15.9155 20.4219 15.8477C20.2582 15.7798 20.0825 15.7452 19.9053 15.7451C19.7281 15.7451 19.5524 15.7799 19.3887 15.8477C19.2249 15.9155 19.0756 16.0153 18.9502 16.1406L18.9482 16.1426L15.75 19.3125V21.25H17.6885L20.8574 18.0518L20.8594 18.0498C20.9847 17.9245 21.0845 17.776 21.1523 17.6123C21.2201 17.4486 21.2548 17.2728 21.2549 17.0957ZM5.25 21V19C5.25 17.7402 5.7508 16.5324 6.6416 15.6416C7.5324 14.7508 8.74022 14.25 10 14.25H13.5C13.9142 14.25 14.25 14.5858 14.25 15C14.25 15.4142 13.9142 15.75 13.5 15.75H10C9.13805 15.75 8.31164 16.0927 7.70215 16.7021C7.09266 17.3116 6.75 18.138 6.75 19V21C6.75 21.4142 6.41421 21.75 6 21.75C5.58579 21.75 5.25 21.4142 5.25 21ZM15.2461 6.83887C15.2063 6.03558 14.8693 5.27356 14.2979 4.70215C13.6884 4.09266 12.862 3.75 12 3.75C11.138 3.75 10.3116 4.09266 9.70215 4.70215C9.09266 5.31164 8.75 6.13805 8.75 7L8.75391 7.16113C8.79375 7.96442 9.13074 8.72644 9.70215 9.29785C10.3116 9.90734 11.138 10.25 12 10.25L12.1611 10.2461C12.9644 10.2063 13.7264 9.86926 14.2979 9.29785C14.9073 8.68836 15.25 7.86195 15.25 7L15.2461 6.83887ZM22.7549 17.0957C22.7548 17.4697 22.6812 17.84 22.5381 18.1855C22.3953 18.5303 22.1854 18.8433 21.9219 19.1074L18.5322 22.5283C18.3914 22.6702 18.1999 22.75 18 22.75H15C14.5858 22.75 14.25 22.4142 14.25 22V19C14.2501 18.8002 14.3298 18.6085 14.4717 18.4678L17.8916 15.0771C18.1558 14.8136 18.4697 14.6047 18.8145 14.4619C19.1602 14.3187 19.5311 14.2451 19.9053 14.2451C20.2795 14.2452 20.6504 14.3187 20.9961 14.4619C21.3417 14.6051 21.6554 14.8155 21.9199 15.0801C22.1846 15.3447 22.3949 15.6591 22.5381 16.0049C22.6812 16.3506 22.7549 16.7215 22.7549 17.0957ZM16.7441 7.23535C16.6859 8.40944 16.1936 9.52323 15.3584 10.3584C14.5232 11.1936 13.4094 11.6859 12.2354 11.7441L12 11.75C10.7402 11.75 9.5324 11.2492 8.6416 10.3584C7.80643 9.52323 7.31406 8.40944 7.25586 7.23535L7.25 7C7.25 5.74022 7.7508 4.5324 8.6416 3.6416C9.5324 2.7508 10.7402 2.25 12 2.25C13.2598 2.25 14.4676 2.7508 15.3584 3.6416C16.2492 4.5324 16.75 5.74022 16.75 7L16.7441 7.23535Z" fill="url(#paint0_linear_6763_6865)"/>
<defs>
<linearGradient id="paint0_linear_6763_6865" x1="14.0024" y1="2.25" x2="14.0024" y2="22.75" gradientUnits="userSpaceOnUse">
<stop stop-color="#FD8875"/>
<stop offset="0.515625" stop-color="#FD758D"/>
<stop offset="1" stop-color="#F864EF"/>
</linearGradient>
</defs>
</svg>
