<svg width="24" height="24" viewBox="0 0 24 24" fill="none" xmlns="http://www.w3.org/2000/svg">
<path d="M11.25 21V18.75H10C9.98925 18.75 9.97851 18.7495 9.96777 18.749C9.22009 18.7167 8.49887 18.462 7.89746 18.0166C7.29599 17.5711 6.84158 16.955 6.59277 16.249C6.45524 15.8584 6.66021 15.4306 7.05078 15.293C7.41707 15.1639 7.81662 15.3357 7.97852 15.6797L8.00781 15.751L8.06934 15.9072C8.22644 16.2651 8.47447 16.5767 8.79004 16.8105C9.14775 17.0755 9.57605 17.2285 10.0205 17.25H14L14.2227 17.2393C14.7376 17.1881 15.2217 16.96 15.5908 16.5908C16.0128 16.1689 16.25 15.5967 16.25 15C16.25 14.4033 16.0128 13.8311 15.5908 13.4092C15.1689 12.9872 14.5967 12.75 14 12.75H10C9.00544 12.75 8.05189 12.3546 7.34863 11.6514C6.64537 10.9481 6.25 9.99456 6.25 9C6.25 8.00544 6.64537 7.05189 7.34863 6.34863C8.05189 5.64537 9.00544 5.25 10 5.25H11.25V3C11.25 2.58579 11.5858 2.25 12 2.25C12.4142 2.25 12.75 2.58579 12.75 3V5.25H14L14.0322 5.25098C14.7799 5.28326 15.5011 5.53801 16.1025 5.9834C16.6288 6.37323 17.0428 6.89345 17.3047 7.49023L17.4072 7.75098L17.4287 7.82422C17.5183 8.19372 17.3155 8.57792 16.9492 8.70703C16.5586 8.84472 16.1299 8.63968 15.9922 8.24902C15.8429 7.82569 15.5706 7.45668 15.21 7.18945C14.8523 6.92449 14.4239 6.77154 13.9795 6.75H10C9.40326 6.75 8.83114 6.98722 8.40918 7.40918C7.98722 7.83114 7.75 8.40326 7.75 9C7.75 9.59674 7.98722 10.1689 8.40918 10.5908C8.83114 11.0128 9.40326 11.25 10 11.25H14C14.9946 11.25 15.9481 11.6454 16.6514 12.3486C17.3546 13.0519 17.75 14.0054 17.75 15C17.75 15.9946 17.3546 16.9481 16.6514 17.6514C15.9481 18.3546 14.9946 18.75 14 18.75H12.75V21C12.75 21.4142 12.4142 21.75 12 21.75C11.5858 21.75 11.25 21.4142 11.25 21Z" fill="url(#paint0_linear_6763_4853)"/>
<defs>
<linearGradient id="paint0_linear_6763_4853" x1="12" y1="2.25" x2="12" y2="21.75" gradientUnits="userSpaceOnUse">
<stop stop-color="#FD8875"/>
<stop offset="0.515625" stop-color="#FD758D"/>
<stop offset="1" stop-color="#F864EF"/>
</linearGradient>
</defs>
</svg>
