<svg width="24" height="24" viewBox="0 0 24 24" fill="none" xmlns="http://www.w3.org/2000/svg">
<path d="M20.7285 3.30081C20.9897 3.19939 21.2858 3.25224 21.496 3.43753C21.7062 3.62285 21.7954 3.90983 21.7275 4.18167L17.7275 20.1817C17.662 20.4438 17.4605 20.6505 17.2002 20.7227C16.9398 20.7948 16.6607 20.7214 16.4697 20.5303L12.081 16.1416L9.59956 19.4502C9.43217 19.6732 9.15506 19.7849 8.87984 19.7403C8.60448 19.6956 8.37626 19.502 8.28804 19.2373L6.3857 13.5313L2.66499 11.6709C2.39966 11.5383 2.23718 11.2612 2.25093 10.9649C2.26483 10.6687 2.45211 10.4083 2.72847 10.3008L20.7285 3.30081ZM4.84761 11.085L7.33492 12.3291C7.51283 12.4181 7.64897 12.574 7.71187 12.7627L9.25874 17.4043L11.0097 15.0703L10.4697 14.5303C10.1768 14.2374 10.1768 13.7626 10.4697 13.4698L14.4697 9.46975C14.7626 9.17686 15.2373 9.17686 15.5302 9.46975C15.8231 9.76265 15.8231 10.2374 15.5302 10.5303L12.0605 14L16.5937 18.5332L19.9209 5.22366L4.84761 11.085Z" fill="url(#paint0_linear_6763_4051)"/>
<defs>
<linearGradient id="paint0_linear_6763_4051" x1="12" y1="3.25" x2="12" y2="20.7499" gradientUnits="userSpaceOnUse">
<stop stop-color="#FD8875"/>
<stop offset="0.515625" stop-color="#FD758D"/>
<stop offset="1" stop-color="#F864EF"/>
</linearGradient>
</defs>
</svg>
