<svg width="24" height="24" viewBox="0 0 24 24" fill="none" xmlns="http://www.w3.org/2000/svg">
<path d="M5.25 21V19C5.25 17.7402 5.7508 16.5324 6.6416 15.6416C7.5324 14.7508 8.74022 14.25 10 14.25H13C13.4142 14.25 13.75 14.5858 13.75 15C13.75 15.4142 13.4142 15.75 13 15.75H10C9.13805 15.75 8.31164 16.0927 7.70215 16.7021C7.09266 17.3116 6.75 18.138 6.75 19V21C6.75 21.4142 6.41421 21.75 6 21.75C5.58579 21.75 5.25 21.4142 5.25 21ZM15.2461 6.83887C15.2063 6.03558 14.8693 5.27356 14.2979 4.70215C13.6884 4.09266 12.862 3.75 12 3.75C11.138 3.75 10.3116 4.09266 9.70215 4.70215C9.09266 5.31164 8.75 6.13805 8.75 7L8.75391 7.16113C8.79375 7.96442 9.13074 8.72644 9.70215 9.29785C10.3116 9.90734 11.138 10.25 12 10.25L12.1611 10.2461C12.9644 10.2063 13.7264 9.86926 14.2979 9.29785C14.9073 8.68836 15.25 7.86195 15.25 7L15.2461 6.83887ZM21.75 21.5C21.75 21.9142 21.4142 22.25 21 22.25C20.5858 22.25 20.25 21.9142 20.25 21.5V18.8105L16.5303 22.5303C16.2374 22.8232 15.7626 22.8232 15.4697 22.5303C15.1768 22.2374 15.1768 21.7626 15.4697 21.4697L19.1895 17.75H16.5C16.0858 17.75 15.75 17.4142 15.75 17C15.75 16.5858 16.0858 16.25 16.5 16.25H21C21.4142 16.25 21.75 16.5858 21.75 17V21.5ZM16.7441 7.23535C16.6859 8.40944 16.1936 9.52323 15.3584 10.3584C14.5232 11.1936 13.4094 11.6859 12.2354 11.7441L12 11.75C10.7402 11.75 9.5324 11.2492 8.6416 10.3584C7.80643 9.52323 7.31406 8.40944 7.25586 7.23535L7.25 7C7.25 5.74022 7.7508 4.5324 8.6416 3.6416C9.5324 2.7508 10.7402 2.25 12 2.25C13.2598 2.25 14.4676 2.7508 15.3584 3.6416C16.2492 4.5324 16.75 5.74022 16.75 7L16.7441 7.23535Z" fill="url(#paint0_linear_7448_7211)"/>
<defs>
<linearGradient id="paint0_linear_7448_7211" x1="13.5" y1="2.25" x2="13.5" y2="22.7499" gradientUnits="userSpaceOnUse">
<stop stop-color="#FD8875"/>
<stop offset="0.515625" stop-color="#FD758D"/>
<stop offset="1" stop-color="#F864EF"/>
</linearGradient>
</defs>
</svg>
