<svg width="24" height="24" viewBox="-2 -2 24 24" fill="none" xmlns="http://www.w3.org/2000/svg">
    <path d="M11.0244 0.685179C12.1128 0.0998528 13.3613 -0.118434 14.584 0.0611552C15.8064 0.240789 16.9385 0.808915 17.8125 1.68225C18.6865 2.55583 19.2562 3.68824 19.4365 4.91076C19.6167 6.13332 19.3982 7.38167 18.8135 8.47034C18.2286 9.55906 17.3084 10.4309 16.1895 10.9557C15.1868 11.4259 14.0726 11.5931 12.9805 11.4459L4.65723 18.7301L4.65625 18.7291C4.20946 19.1596 3.63367 19.4264 3.02051 19.4869L2.74902 19.5006C2.38788 19.5004 2.02987 19.429 1.69629 19.2906C1.36275 19.1523 1.0599 18.9494 0.804688 18.694C0.549457 18.4385 0.347011 18.1351 0.208985 17.8014C0.070996 17.4677 -0.000191108 17.1097 3.85314e-07 16.7487L0.0136723 16.4772C0.0749062 15.8641 0.341576 15.2877 0.772461 14.8414L8.05078 6.52405C7.90217 5.43085 8.07085 4.31512 8.54102 3.31116C9.06522 2.19196 9.93599 1.27058 11.0244 0.685179ZM1.90137 15.8297C1.89034 15.8423 1.87806 15.854 1.86621 15.8658C1.63174 16.1001 1.50025 16.4182 1.5 16.7496L1.50586 16.8727C1.51783 16.9947 1.54774 17.1145 1.59473 17.2281C1.65746 17.3798 1.74923 17.5183 1.86523 17.6344C1.98125 17.7505 2.11986 17.842 2.27148 17.9049C2.42293 17.9677 2.58508 18.0005 2.74902 18.0006L2.87305 17.9947C3.15917 17.9665 3.42858 17.8403 3.63379 17.6354L3.66992 17.6012L11.6543 10.6139L8.88574 7.84826L1.90137 15.8297ZM14.3652 1.54455C13.4618 1.41195 12.5396 1.57402 11.7354 2.00647C10.9309 2.43914 10.2869 3.11972 9.89941 3.9469C9.54183 4.71034 9.42291 5.56099 9.5498 6.39123L13.1094 9.94787C13.9395 10.0742 14.7897 9.95516 15.5527 9.59729C16.3797 9.2094 17.0599 8.56505 17.4922 7.76037C17.9243 6.95576 18.0853 6.03306 17.9521 5.12951C17.8189 4.22609 17.3988 3.38939 16.7529 2.74377C16.1068 2.09802 15.269 1.6773 14.3652 1.54455Z" fill="url(#paint0_linear_6763_2068)"/>
    <defs>
        <linearGradient id="paint0_linear_6763_2068" x1="9.74899" y1="0" x2="9.74899" y2="19.5006" gradientUnits="userSpaceOnUse">
            <stop stop-color="#FD8875"/>
            <stop offset="0.515625" stop-color="#FD758D"/>
            <stop offset="1" stop-color="#F864EF"/>
        </linearGradient>
    </defs>
</svg>
