<svg width="24" height="24" viewBox="0 0 24 24" fill="none" xmlns="http://www.w3.org/2000/svg">
<path d="M19.25 8C19.25 7.13805 18.9073 6.31164 18.2979 5.70215C17.6884 5.09266 16.862 4.75 16 4.75H8C7.13805 4.75 6.31164 5.09266 5.70215 5.70215C5.09266 6.31164 4.75 7.13805 4.75 8V16C4.75 16.862 5.09266 17.6884 5.70215 18.2979C6.31164 18.9073 7.13805 19.25 8 19.25H16C16.862 19.25 17.6884 18.9073 18.2979 18.2979C18.9073 17.6884 19.25 16.862 19.25 16V8ZM14.25 12C14.25 11.4033 14.0128 10.8311 13.5908 10.4092C13.1689 9.98722 12.5967 9.75 12 9.75C11.4033 9.75 10.8311 9.98722 10.4092 10.4092C9.98722 10.8311 9.75 11.4033 9.75 12C9.75 12.5967 9.98722 13.1689 10.4092 13.5908C10.8311 14.0128 11.4033 14.25 12 14.25C12.5967 14.25 13.1689 14.0128 13.5908 13.5908C14.0128 13.1689 14.25 12.5967 14.25 12ZM15.75 7.50977V7.5C15.75 7.08579 16.0858 6.75 16.5 6.75C16.9142 6.75 17.25 7.08579 17.25 7.5V7.50977C17.25 7.92398 16.9142 8.25977 16.5 8.25977C16.0858 8.25977 15.75 7.92398 15.75 7.50977ZM15.75 12C15.75 12.9946 15.3546 13.9481 14.6514 14.6514C13.9481 15.3546 12.9946 15.75 12 15.75C11.0054 15.75 10.0519 15.3546 9.34863 14.6514C8.64537 13.9481 8.25 12.9946 8.25 12C8.25 11.0054 8.64537 10.0519 9.34863 9.34863C10.0519 8.64537 11.0054 8.25 12 8.25C12.9946 8.25 13.9481 8.64537 14.6514 9.34863C15.3546 10.0519 15.75 11.0054 15.75 12ZM20.75 16C20.75 17.2598 20.2492 18.4676 19.3584 19.3584C18.4676 20.2492 17.2598 20.75 16 20.75H8C6.74022 20.75 5.5324 20.2492 4.6416 19.3584C3.7508 18.4676 3.25 17.2598 3.25 16V8C3.25 6.74022 3.7508 5.5324 4.6416 4.6416C5.5324 3.7508 6.74022 3.25 8 3.25H16C17.2598 3.25 18.4676 3.7508 19.3584 4.6416C20.2492 5.5324 20.75 6.74022 20.75 8V16Z" fill="url(#paint0_linear_6763_4640)"/>
<defs>
<linearGradient id="paint0_linear_6763_4640" x1="12" y1="3.25" x2="12" y2="20.75" gradientUnits="userSpaceOnUse">
<stop stop-color="#FD8875"/>
<stop offset="0.515625" stop-color="#FD758D"/>
<stop offset="1" stop-color="#F864EF"/>
</linearGradient>
</defs>
</svg>
