<svg width="24" height="24" viewBox="0 0 24 24" fill="none" xmlns="http://www.w3.org/2000/svg">
<path d="M9.24994 18V16C9.24994 15.5858 9.58573 15.25 9.99994 15.25C10.4142 15.25 10.7499 15.5858 10.7499 16V18C10.7499 18.3315 10.8817 18.6494 11.1162 18.8838C11.3506 19.1182 11.6684 19.25 11.9999 19.25H18.9999C19.3315 19.25 19.6493 19.1182 19.8837 18.8838C20.1182 18.6494 20.2499 18.3315 20.2499 18V6C20.2499 5.66848 20.1182 5.35063 19.8837 5.11621C19.6787 4.9112 19.41 4.78436 19.124 4.75586L18.9999 4.75H11.9999C11.6684 4.75 11.3506 4.88179 11.1162 5.11621C10.8817 5.35063 10.7499 5.66848 10.7499 6V8C10.7499 8.41421 10.4142 8.75 9.99994 8.75C9.58573 8.75 9.24994 8.41421 9.24994 8V6C9.24994 5.27065 9.53988 4.57139 10.0556 4.05566C10.5713 3.53994 11.2706 3.25 11.9999 3.25H18.9999C19.7293 3.25 20.4286 3.53994 20.9443 4.05566C21.46 4.57139 21.7499 5.27065 21.7499 6V18C21.7499 18.7293 21.46 19.4286 20.9443 19.9443C20.4286 20.4601 19.7293 20.75 18.9999 20.75H11.9999C11.2706 20.75 10.5713 20.4601 10.0556 19.9443C9.53988 19.4286 9.24994 18.7293 9.24994 18ZM5.46967 8.46973C5.76256 8.17683 6.23732 8.17683 6.53022 8.46973C6.82311 8.76262 6.82311 9.23738 6.53022 9.53027L4.81049 11.25H14.9999C15.4142 11.25 15.7499 11.5858 15.7499 12C15.7499 12.4142 15.4142 12.75 14.9999 12.75H4.81049L6.53022 14.4697C6.82311 14.7626 6.82311 15.2374 6.53022 15.5303C6.23732 15.8232 5.76256 15.8232 5.46967 15.5303L2.46967 12.5303C2.17678 12.2374 2.17678 11.7626 2.46967 11.4697L5.46967 8.46973Z" fill="#FF2A2A"/>
</svg>
