<svg width="24" height="24" viewBox="0 0 24 24" fill="none" xmlns="http://www.w3.org/2000/svg">
<path d="M19.28 10.8145C19.2799 10.297 19.0708 9.8052 18.7058 9.44727L18.5398 9.30176L13.2068 5.15332C12.9125 4.92439 12.5585 4.78762 12.1892 4.75684L12.03 4.75C11.6039 4.75 11.1896 4.89167 10.8533 5.15332L5.51929 9.30176C5.28898 9.48088 5.1025 9.71053 4.97437 9.97266C4.84629 10.2347 4.77989 10.5227 4.78003 10.8145V18.0146C4.78003 18.3461 4.91186 18.664 5.14624 18.8984C5.38066 19.1329 5.69851 19.2646 6.03003 19.2646H18.03C18.3616 19.2646 18.6794 19.1329 18.9138 18.8984C19.1482 18.664 19.28 18.3461 19.28 18.0146V10.8145ZM15.613 14.3574C15.9676 14.1439 16.4284 14.2579 16.6423 14.6123C16.8563 14.967 16.7421 15.4286 16.3875 15.6426C15.1392 16.3955 13.5485 16.75 11.9988 16.75C10.4492 16.7499 8.85935 16.3946 7.61206 15.6416C7.2578 15.4274 7.14416 14.9668 7.35815 14.6123C7.55888 14.28 7.97651 14.1588 8.32007 14.3213L8.38745 14.3584L8.57202 14.4639C9.51168 14.9758 10.7375 15.2499 11.9988 15.25C13.3445 15.25 14.6513 14.9375 15.613 14.3574ZM20.78 18.0146C20.78 18.744 20.4901 19.4433 19.9744 19.959C19.4586 20.4747 18.7594 20.7646 18.03 20.7646H6.03003C5.30069 20.7646 4.60142 20.4747 4.08569 19.959C3.57001 19.4433 3.28003 18.744 3.28003 18.0146V10.8145C3.27989 10.2943 3.39828 9.78077 3.62671 9.31348C3.85517 8.84616 4.18781 8.43754 4.59839 8.11816L9.93237 3.96973L10.1638 3.80469C10.7172 3.44377 11.3653 3.25 12.03 3.25C12.7898 3.25 13.528 3.50321 14.1277 3.96973L19.4597 8.11719C20.2926 8.7643 20.7799 9.76014 20.78 10.8145V18.0146Z" fill="#BBBBBB"/>
</svg>
