<svg width="24" height="24" viewBox="0 0 24 24" fill="none" xmlns="http://www.w3.org/2000/svg">
<path d="M12.4541 3.23743C14.791 3.33218 17.0236 4.17835 18.7324 5.63586C20.4429 7.09499 21.5171 9.07396 21.7266 11.212C21.936 13.3513 21.262 15.4737 19.8525 17.1837C18.4452 18.8911 16.403 20.0697 14.1172 20.5226C11.9196 20.9579 9.62188 20.6958 7.61327 19.7843L3.15624 20.7335C2.89314 20.7895 2.61967 20.6997 2.44042 20.4991C2.26152 20.2987 2.20325 20.0177 2.28808 19.7628L3.4746 16.2023C2.39763 14.4477 2.01796 12.4039 2.42089 10.4132C2.84791 8.30357 4.11808 6.42526 5.96581 5.11438C7.81188 3.80469 10.1174 3.14276 12.4541 3.23743ZM12.3935 4.73645C10.3728 4.65455 8.39718 5.229 6.83398 6.33801C5.27232 7.44593 4.23703 9.00448 3.89159 10.7111C3.54669 12.4153 3.90627 14.1792 4.92089 15.6798C5.05149 15.873 5.08544 16.1158 5.01171 16.337L4.12597 18.9923L7.54394 18.2657L7.66698 18.2501C7.79083 18.2447 7.91465 18.2706 8.02734 18.3253C9.7915 19.1818 11.8541 19.4416 13.8262 19.0509C15.798 18.6602 17.5245 17.65 18.6953 16.2296C19.8638 14.812 20.4022 13.0809 20.2334 11.3575C20.0644 9.63298 19.1955 8.00191 17.7588 6.77649C16.3201 5.54939 14.4143 4.81838 12.3935 4.73645Z" fill="#BBBBBB"/>
<path d="M14.75 14.2495C14.75 13.8353 14.4142 13.4995 14 13.4995H8C7.58579 13.4995 7.25 13.8353 7.25 14.2495C7.25 14.6637 7.58579 14.9995 8 14.9995H14C14.4142 14.9995 14.75 14.6637 14.75 14.2495Z" fill="#BBBBBB"/>
<path d="M16.75 10.2495C16.75 9.8353 16.4142 9.49951 16 9.49951H8C7.58579 9.49951 7.25 9.8353 7.25 10.2495C7.25 10.6637 7.58579 10.9995 8 10.9995H16C16.4142 10.9995 16.75 10.6637 16.75 10.2495Z" fill="#BBBBBB"/>
</svg>
