<svg width="13" height="13" viewBox="0 0 13 13" fill="none" xmlns="http://www.w3.org/2000/svg">
<path d="M10.9688 2.84375H8.9375V2.4375C8.9375 2.11427 8.8091 1.80427 8.58054 1.57571C8.35198 1.34715 8.04198 1.21875 7.71875 1.21875H5.28125C4.95802 1.21875 4.64802 1.34715 4.41946 1.57571C4.1909 1.80427 4.0625 2.11427 4.0625 2.4375V2.84375H2.03125C1.81576 2.84375 1.6091 2.92935 1.45673 3.08173C1.30435 3.2341 1.21875 3.44076 1.21875 3.65625V10.1562C1.21875 10.3717 1.30435 10.5784 1.45673 10.7308C1.6091 10.8831 1.81576 10.9688 2.03125 10.9688H10.9688C11.1842 10.9688 11.3909 10.8831 11.5433 10.7308C11.6956 10.5784 11.7812 10.3717 11.7812 10.1562V3.65625C11.7812 3.44076 11.6956 3.2341 11.5433 3.08173C11.3909 2.92935 11.1842 2.84375 10.9688 2.84375ZM4.875 2.4375C4.875 2.32976 4.9178 2.22642 4.99399 2.15024C5.07017 2.07405 5.17351 2.03125 5.28125 2.03125H7.71875C7.82649 2.03125 7.92983 2.07405 8.00601 2.15024C8.0822 2.22642 8.125 2.32976 8.125 2.4375V2.84375H4.875V2.4375ZM10.9688 3.65625V5.76926C9.59754 6.51563 8.06118 6.90653 6.5 6.90625C4.93888 6.90653 3.40256 6.51582 2.03125 5.76977V3.65625H10.9688ZM10.9688 10.1562H2.03125V6.68484C3.42262 7.36541 4.9511 7.71905 6.5 7.71875C8.04892 7.71878 9.57739 7.36498 10.9688 6.68434V10.1562ZM5.28125 5.6875C5.28125 5.57976 5.32405 5.47642 5.40024 5.40024C5.47642 5.32405 5.57976 5.28125 5.6875 5.28125H7.3125C7.42024 5.28125 7.52358 5.32405 7.59976 5.40024C7.67595 5.47642 7.71875 5.57976 7.71875 5.6875C7.71875 5.79524 7.67595 5.89858 7.59976 5.97476C7.52358 6.05095 7.42024 6.09375 7.3125 6.09375H5.6875C5.57976 6.09375 5.47642 6.05095 5.40024 5.97476C5.32405 5.89858 5.28125 5.79524 5.28125 5.6875Z" fill="url(#paint0_linear_7311_98389)"/>
<defs>
<linearGradient id="paint0_linear_7311_98389" x1="6.5" y1="1.21875" x2="6.5" y2="10.9688" gradientUnits="userSpaceOnUse">
<stop stop-color="#FD8875"/>
<stop offset="0.515625" stop-color="#FD758D"/>
<stop offset="1" stop-color="#F864EF"/>
</linearGradient>
</defs>
</svg>
