<?xml version="1.0" encoding="utf-8"?>
<svg width="24" height="24" version="1.1" id="Layer_1" xmlns="http://www.w3.org/2000/svg" xmlns:xlink="http://www.w3.org/1999/xlink"
    viewBox="0 0 472.618 472.618" xml:space="preserve">
<defs>
    <linearGradient id="femaleGrad" x1="0%" y1="0%" x2="0%" y2="100%">
        <stop offset="0%" stop-color="#FD8875" />
		<stop offset="50%" stop-color="#FD758D" />
		<stop offset="100%" stop-color="#F864EF" />
    </linearGradient>
</defs>
	<g>
    <g>
       <path fill="url(#femaleGrad)" d="M347.734,173.867c-8.534-30.933-34.133-50.133-54.4-57.6c-21.333-7.467-44.8-2.133-67.2,13.867
          c-22.4-16-45.867-20.267-67.2-13.867c-20.267,7.467-45.867,26.667-54.4,57.6c-6.4,20.267-6.4,52.267,24.533,91.733
          c73.6,92.8,88.533,97.067,96,97.067c0,0,0,0,1.067,0c0,0,0,0,1.067,0c7.467,0,22.4-4.267,96-97.067
          C354.134,226.133,354.134,194.133,347.734,173.867z M291.2,238.933c-20.267,24.533-49.067,58.667-65.067,74.667
          c-16-16-44.8-50.133-65.067-74.667c-16-19.2-21.333-38.4-17.067-54.4c4.267-14.933,17.067-24.533,27.733-28.8
          c9.6-4.267,24.533,2.133,38.4,16c4.267,4.267,9.6,6.4,16,6.4c5.333,0,10.667-2.133,16-6.4c13.867-13.867,28.8-20.267,38.4-16
          C291.2,160,304,169.6,308.267,184.533C312.534,200.533,307.2,219.733,291.2,238.933z"/>
    </g>
</g>
	<g>
    <g>
       <path fill="url(#femaleGrad)" d="M494.934,465.067l-25.6-25.6l18.133-18.133c8.533-8.533,8.533-21.333,0-29.867s-21.333-8.533-29.867,0L439.467,409.6
          l-37.333-37.333c73.6-89.6,69.333-222.933-13.867-306.133C345.601,23.467,288.001,0,227.201,0S108.8,23.467,66.134,66.133
          C23.467,109.867,0,167.467,0,228.267c0,60.8,23.467,118.4,66.133,161.067C108.8,432,166.4,455.467,227.201,455.467
          c53.333,0,104.533-19.2,145.067-53.333l37.333,37.333l-18.133,18.133c-8.533,8.533-8.533,21.333,0,29.867
          c10.667,10.667,25.6,4.267,29.867,1.067l18.133-19.2l25.6,25.6c4.267,4.267,9.6,6.4,14.933,6.4s10.667-2.133,14.933-6.4
          C503.467,486.4,503.467,473.6,494.934,465.067z M358.4,358.4c-35.2,35.2-82.133,54.4-131.2,54.4c-49.067,0-96-19.2-131.2-54.4
          c-35.2-35.2-54.4-82.133-54.4-131.2c0-49.067,19.2-96,54.4-131.2c35.2-35.2,81.067-54.4,131.2-54.4s96,19.2,131.2,54.4
          C430.934,168.533,430.934,285.867,358.4,358.4z"/>
    </g>
</g>
</svg>
