<svg width="24" height="24" viewBox="0 0 472.618 472.618" fill="none" xmlns="http://www.w3.org/2000/svg">
    <defs>
        <linearGradient id="darkBlueGrad" x1="0%" y1="0%" x2="0%" y2="100%">
            <stop offset="0%" stop-color="#1A263F" />
            <stop offset="50%" stop-color="#1C3D75" />
            <stop offset="100%" stop-color="#2A5CA8" />
        </linearGradient>
    </defs>
    <path fill="url(#darkBlueGrad)" d="M443.609,0.001H293.584V58.02h79.994L271.724,159.873l0.954,0.953c-28.3-20.409-62.942-32.569-100.499-32.569
   C77.087,128.257,0,205.345,0,300.437s77.087,172.18,172.18,172.18s172.18-77.088,172.18-172.18
   c0-37.558-12.161-72.201-32.572-100.502l0.959,0.959L414.599,99.041v79.994h58.019V29.01V0.001H443.609z M172.183,414.596
   c-62.948,0-114.159-51.211-114.159-114.159c0-62.948,51.211-114.159,114.159-114.159s114.158,51.211,114.158,114.159
   C286.341,363.386,235.131,414.596,172.183,414.596z"/>
</svg>
