<svg width="24" height="24" viewBox="10 10 24 24" fill="none" xmlns="http://www.w3.org/2000/svg">
    <path d="M24.2501 27.75H19.7501V28C19.7501 28.5967 19.9873 29.1689 20.4093 29.5908C20.8312 30.0128 21.4034 30.25 22.0001 30.25L22.2227 30.2393C22.7377 30.1881 23.2218 29.96 23.5909 29.5908C24.0129 29.1689 24.2501 28.5967 24.2501 28V27.75ZM22.0001 13.75C21.6686 13.75 21.3507 13.8818 21.1163 14.1162C20.8819 14.3506 20.7501 14.6685 20.7501 15L20.7423 15.1074C20.7067 15.3539 20.5498 15.5693 20.3204 15.6777C19.2951 16.1626 18.4212 16.9176 17.7921 17.8613C17.1653 18.8015 16.8054 19.894 16.7501 21.0225V24C16.7501 24.03 16.7478 24.06 16.7442 24.0898C16.6549 24.8281 16.394 25.5355 15.9815 26.1543C15.9598 26.1869 15.9357 26.218 15.9132 26.25H28.087C28.0645 26.218 28.0404 26.1869 28.0186 26.1543C27.6061 25.5355 27.3453 24.8281 27.2559 24.0898C27.2523 24.06 27.2501 24.03 27.2501 24V21.0225C27.1948 19.894 26.8349 18.8015 26.2081 17.8613C25.579 16.9176 24.7051 16.1626 23.6798 15.6777C23.4176 15.5538 23.2501 15.29 23.2501 15C23.2501 14.6685 23.1183 14.3506 22.8839 14.1162C22.6495 13.8818 22.3316 13.75 22.0001 13.75ZM25.7501 28C25.7501 28.9946 25.3547 29.9481 24.6515 30.6514C23.9921 31.3108 23.1126 31.6992 22.1856 31.7451L22.0001 31.75C21.0055 31.75 20.052 31.3546 19.3487 30.6514C18.6455 29.9481 18.2501 28.9946 18.2501 28V27.75H14.0001C13.6595 27.75 13.3614 27.5207 13.2745 27.1914C13.1877 26.862 13.3346 26.5155 13.6309 26.3477C14.0736 26.0969 14.4513 25.7456 14.7335 25.3223C15.0087 24.9094 15.1848 24.4388 15.2501 23.9473V21C15.2501 20.9883 15.2505 20.9766 15.2511 20.9648C15.317 19.56 15.7639 18.1995 16.544 17.0293C17.2443 15.9789 18.1894 15.1178 19.295 14.5176C19.3931 13.9676 19.6553 13.4561 20.0558 13.0557C20.5715 12.5399 21.2707 12.25 22.0001 12.25L22.2716 12.2637C22.9012 12.3261 23.4931 12.6043 23.9444 13.0557C24.3448 13.4561 24.6061 13.9676 24.7042 14.5176C25.8101 15.1178 26.7558 15.9787 27.4561 17.0293C28.2363 18.1995 28.6832 19.56 28.7491 20.9648C28.7497 20.9766 28.7501 20.9883 28.7501 21V23.9473C28.8154 24.4388 28.9914 24.9094 29.2667 25.3223C29.5489 25.7456 29.9266 26.0969 30.3692 26.3477C30.6656 26.5155 30.8125 26.862 30.7257 27.1914C30.6388 27.5207 30.3406 27.75 30.0001 27.75H25.7501V28Z" fill="white"/>
</svg>
