<svg width="24" height="24" viewBox="0 0 24 24" fill="none" xmlns="http://www.w3.org/2000/svg">
<path d="M12 2.25049C13.7306 2.25049 15.4224 2.76366 16.8613 3.7251C18.3002 4.68653 19.4217 6.05307 20.084 7.65186C20.7463 9.25068 20.9196 11.0102 20.582 12.7075C20.2444 14.4048 19.4111 15.9643 18.1875 17.188L13.9443 21.4302C13.4288 21.9452 12.7296 22.2347 12.001 22.2349C11.2721 22.2349 10.5723 21.9463 10.0566 21.4312L5.8125 17.188C4.58886 15.9643 3.75557 14.4048 3.41797 12.7075C3.08038 11.0102 3.25373 9.25068 3.91601 7.65186C4.57828 6.05307 5.6998 4.68653 7.13867 3.7251C8.57759 2.76366 10.2694 2.25049 12 2.25049ZM12 3.75049C10.5661 3.75049 9.16392 4.17554 7.97168 4.97217C6.77956 5.76878 5.85046 6.90143 5.30175 8.22607C4.75308 9.55073 4.60998 11.0083 4.88965 12.4146C5.16933 13.8207 5.85935 15.1126 6.87304 16.1265L11.1172 20.3696L11.209 20.4526C11.4313 20.6346 11.7112 20.7349 12.001 20.7349C12.3321 20.7347 12.6495 20.6036 12.8838 20.3696L17.127 16.1265C18.1406 15.1126 18.8307 13.8207 19.1103 12.4146C19.39 11.0083 19.2469 9.55073 18.6982 8.22607C18.1495 6.90143 17.2204 5.76878 16.0283 4.97217C14.8361 4.17554 13.4339 3.75049 12 3.75049ZM14.25 11.0005C14.25 10.4038 14.0128 9.83065 13.5908 9.40869C13.1689 8.98689 12.5966 8.75049 12 8.75049C11.4034 8.75049 10.8311 8.98689 10.4092 9.40869C9.98722 9.83065 9.75 10.4038 9.75 11.0005C9.75013 11.597 9.98734 12.1695 10.4092 12.5913C10.8311 13.0131 11.4034 13.2505 12 13.2505C12.5966 13.2505 13.1689 13.0131 13.5908 12.5913C14.0127 12.1695 14.2499 11.597 14.25 11.0005ZM15.75 11.0005C15.7499 11.9949 15.3545 12.9487 14.6514 13.6519C13.9481 14.355 12.9944 14.7505 12 14.7505C11.0056 14.7505 10.0519 14.355 9.34863 13.6519C8.64548 12.9487 8.25013 11.9949 8.25 11.0005C8.25 10.0059 8.64537 9.05141 9.34863 8.34814C10.0519 7.64504 11.0056 7.25049 12 7.25049C12.9944 7.25049 13.9481 7.64504 14.6514 8.34814C15.3546 9.05141 15.75 10.0059 15.75 11.0005Z" fill="white"/>
</svg>
